<?xml version="1.0" encoding="UTF-8" standalone="no"?>
<svg
   xmlns:osb="http://www.openswatchbook.org/uri/2009/osb"
   xmlns:dc="http://purl.org/dc/elements/1.1/"
   xmlns:cc="http://creativecommons.org/ns#"
   xmlns:rdf="http://www.w3.org/1999/02/22-rdf-syntax-ns#"
   xmlns:svg="http://www.w3.org/2000/svg"
   xmlns="http://www.w3.org/2000/svg"
   xmlns:xlink="http://www.w3.org/1999/xlink"
   id="svg6"
   version="1.1"
   width="24"
   height="24">
  <metadata
     id="metadata12">
    <rdf:RDF>
      <cc:Work
         rdf:about="">
        <dc:format>image/svg+xml</dc:format>
        <dc:type
           rdf:resource="http://purl.org/dc/dcmitype/StillImage" />
        <dc:title></dc:title>
      </cc:Work>
    </rdf:RDF>
  </metadata>
  <defs
     id="defs10">
    <linearGradient
       id="linearGradient1019">
      <stop
         id="stop1011"
         style="stop-color:#ffffff;stop-opacity:1"
         offset="0" />
      <stop
         id="stop1013"
         style="stop-color:#ffffff;stop-opacity:0.23529412"
         offset="0" />
      <stop
         id="stop1017"
         style="stop-color:#ffffff;stop-opacity:0.39215687"
         offset="1" />
    </linearGradient>
    <linearGradient
       id="linearGradient78">
      <stop
         id="stop74"
         offset="0"
         style="stop-color:#9bdb4d;stop-opacity:1" />
      <stop
         id="stop76"
         offset="1"
         style="stop-color:#68b723;stop-opacity:1" />
    </linearGradient>
    <linearGradient
       id="linearGradient971">
      <stop
         offset="0"
         style="stop-color:#ffffff;stop-opacity:1"
         id="stop963" />
      <stop
         offset="0.51999998"
         style="stop-color:#ffffff;stop-opacity:0.23529412"
         id="stop965" />
      <stop
         offset="0.51999998"
         style="stop-color:#ffffff;stop-opacity:0.15686275"
         id="stop967" />
      <stop
         offset="1"
         style="stop-color:#ffffff;stop-opacity:0.39215687"
         id="stop969" />
    </linearGradient>
    <linearGradient
       id="linearGradient4526"
       osb:paint="solid">
      <stop
         style="stop-color:#ffffff;stop-opacity:1;"
         offset="0"
         id="stop4528" />
    </linearGradient>
    <linearGradient
       y2="36.135208"
       x2="-2.5213938"
       y1="22.402153"
       x1="-2.5213938"
       gradientTransform="matrix(-1.004639,0,0,1,10.912647,-16.171689)"
       gradientUnits="userSpaceOnUse"
       id="linearGradient983"
       xlink:href="#linearGradient971" />
    <linearGradient
       y2="29.671688"
       x2="5.0321598"
       y1="28.67169"
       x1="5.0321598"
       gradientTransform="matrix(-0.87905913,0,0,1.0000035,10.423566,-16.671791)"
       gradientUnits="userSpaceOnUse"
       id="linearGradient1009"
       xlink:href="#linearGradient1019" />
    <radialGradient
       gradientTransform="matrix(-0.52995454,0,0,-0.35307735,22.512547,21.835677)"
       gradientUnits="userSpaceOnUse"
       xlink:href="#linearGradient8662-7"
       id="radialGradient3862"
       fy="36.421127"
       fx="24.837126"
       r="15.644737"
       cy="36.421127"
       cx="24.837126" />
    <linearGradient
       id="linearGradient8662-7">
      <stop
         offset="0"
         style="stop-color:#000000;stop-opacity:1"
         id="stop8664-0" />
      <stop
         offset="1"
         style="stop-color:#000000;stop-opacity:0"
         id="stop8666-1" />
    </linearGradient>
    <linearGradient
       y2="35.036816"
       x2="35.836643"
       y1="23.365917"
       x1="35.836643"
       gradientTransform="matrix(0.61757188,0,0,1.1138815,-0.1358756,-20.026862)"
       gradientUnits="userSpaceOnUse"
       id="linearGradient4217"
       xlink:href="#linearGradient4257" />
    <linearGradient
       id="linearGradient4257">
      <stop
         offset="0"
         style="stop-color:#ffffff;stop-opacity:1"
         id="stop4259" />
      <stop
         offset="0"
         style="stop-color:#ffffff;stop-opacity:0.23529412"
         id="stop4261-1" />
      <stop
         offset="1"
         style="stop-color:#ffffff;stop-opacity:0.15686275"
         id="stop4263-2" />
      <stop
         offset="1"
         style="stop-color:#ffffff;stop-opacity:0.39215687"
         id="stop4265-7" />
    </linearGradient>
    <linearGradient
       y2="19.998161"
       x2="12"
       y1="4"
       x1="12"
       gradientTransform="translate(0,1)"
       gradientUnits="userSpaceOnUse"
       id="linearGradient920"
       xlink:href="#linearGradient78" />
  </defs>
  <g
     id="layer1"
     transform="matrix(-1,0,0,1,20.061029,8.5476097)">
    <path
       style="display:inline;overflow:visible;visibility:visible;opacity:0.141176;fill:url(#radialGradient3862);fill-opacity:1;fill-rule:evenodd;stroke:none;stroke-width:1;marker:none"
       id="path3501-0"
       d="m 1.059,8.976195 a 8.2909995,5.5238047 0 1 1 16.581999,0 8.2909995,5.5238047 0 0 1 -16.581999,0 z" />
  </g>
  <path
     d="M 12 4.5 C 11.714151 4.5 11.5 4.7141507 11.5 5 L 11.5 10 C 11.500179 10.276217 11.276217 10.500179 11 10.5 L 3 10.5 C 2.7141507 10.5 2.5 10.714151 2.5 11 L 2.5 14 C 2.5 14.285849 2.7141507 14.5 3 14.5 L 11 14.5 C 11.276217 14.499821 11.500179 14.723783 11.5 15 L 11.5 20 C 11.5 20.285849 11.714151 20.5 12 20.5 C 12.153846 20.5 12.282919 20.43582 12.375 20.332031 C 12.3813 20.324731 12.387811 20.317517 12.394531 20.310547 L 20.363281 12.841797 C 20.449401 12.750577 20.5 12.634941 20.5 12.5 C 20.5 12.365061 20.4494 12.249421 20.363281 12.158203 L 12.394531 4.6894531 C 12.387814 4.6824824 12.381301 4.6753178 12.375 4.6679688 C 12.282919 4.5641761 12.153845 4.5 12 4.5 z M 20.5 12.5 L 20.5 19.884766 C 20.5 20.22569 20.723 20.5 21 20.5 L 23 20.5 C 23.277 20.5 23.5 20.22569 23.5 19.884766 L 23.5 5.1152344 C 23.5 4.7743112 23.277 4.5 23 4.5 L 21 4.5 C 20.723 4.5 20.5 4.7743112 20.5 5.1152344 L 20.5 12.5 z "
     style="opacity:1;fill:url(#linearGradient920);stroke:#206b00;stroke-width:1;stroke-linecap:round;stroke-linejoin:round;stroke-miterlimit:4;stroke-dasharray:none;stroke-opacity:0.5;stop-color:#000000"
     id="path873-5-5" />
  <path
     d="m 11,13.501953 c 0.827238,2.68e-4 1.497779,0.670809 1.498047,1.498047 v 3.796875 L 19.295,12.5 12.498047,6.203539 v 3.796875 C 12.497779,10.827652 11.827238,11.498193 11,11.498461"
     style="font-variation-settings:normal;opacity:0.6;vector-effect:none;fill:none;fill-opacity:1;stroke:url(#linearGradient983);stroke-width:1;stroke-linecap:butt;stroke-linejoin:miter;stroke-miterlimit:4;stroke-dasharray:none;stroke-dashoffset:0;stroke-opacity:1;marker:none;marker-start:none;marker-mid:none;marker-end:none;stop-color:#000000;stop-opacity:1"
     id="path873-5-5-2" />
  <path
     id="rect1007"
     style="font-variation-settings:normal;opacity:0.6;vector-effect:none;fill:none;fill-opacity:1;stroke:url(#linearGradient1009);stroke-width:0.999992;stroke-linecap:butt;stroke-linejoin:miter;stroke-miterlimit:4;stroke-dasharray:none;stroke-dashoffset:0;stroke-opacity:1;marker:none;marker-start:none;marker-mid:none;marker-end:none;stop-color:#000000;stop-opacity:1"
     d="M 11,13.500003 H 3.5 V 11.499996 H 11" />
  <path
     style="color:#000000;clip-rule:nonzero;display:inline;overflow:visible;visibility:visible;opacity:0.5;isolation:auto;mix-blend-mode:normal;color-interpolation:sRGB;color-interpolation-filters:linearRGB;solid-color:#000000;solid-opacity:1;fill:none;fill-opacity:1;fill-rule:nonzero;stroke:url(#linearGradient4217);stroke-width:0.991996;stroke-linecap:butt;stroke-linejoin:miter;stroke-miterlimit:4;stroke-dasharray:none;stroke-dashoffset:0;stroke-opacity:1;marker:none;color-rendering:auto;image-rendering:auto;shape-rendering:auto;text-rendering:auto;enable-background:accumulate"
     d="m 21.496,5.4959996 h 1.008 V 19.504 h -1.008 z"
     id="path2343-3" />
</svg>
