<?xml version="1.0" encoding="UTF-8" standalone="no"?>
<svg
   xmlns:osb="http://www.openswatchbook.org/uri/2009/osb"
   xmlns:dc="http://purl.org/dc/elements/1.1/"
   xmlns:cc="http://creativecommons.org/ns#"
   xmlns:rdf="http://www.w3.org/1999/02/22-rdf-syntax-ns#"
   xmlns:svg="http://www.w3.org/2000/svg"
   xmlns="http://www.w3.org/2000/svg"
   xmlns:xlink="http://www.w3.org/1999/xlink"
   id="svg6"
   version="1.1"
   width="24"
   height="24">
  <metadata
     id="metadata12">
    <rdf:RDF>
      <cc:Work
         rdf:about="">
        <dc:format>image/svg+xml</dc:format>
        <dc:type
           rdf:resource="http://purl.org/dc/dcmitype/StillImage" />
        <dc:title></dc:title>
      </cc:Work>
    </rdf:RDF>
  </metadata>
  <defs
     id="defs10">
    <linearGradient
       id="linearGradient1177">
      <stop
         offset="0"
         style="stop-color:#ffffff;stop-opacity:1"
         id="stop1169" />
      <stop
         offset="0"
         style="stop-color:#ffffff;stop-opacity:0.23529412"
         id="stop1171" />
      <stop
         offset="0.99999988"
         style="stop-color:#ffffff;stop-opacity:0.15686275"
         id="stop1173" />
      <stop
         offset="1"
         style="stop-color:#ffffff;stop-opacity:0.39215687"
         id="stop1175" />
    </linearGradient>
    <linearGradient
       id="linearGradient78">
      <stop
         id="stop74"
         offset="0"
         style="stop-color:#9bdb4d;stop-opacity:1" />
      <stop
         id="stop76"
         offset="1"
         style="stop-color:#68b723;stop-opacity:1" />
    </linearGradient>
    <linearGradient
       id="linearGradient4526"
       osb:paint="solid">
      <stop
         style="stop-color:#ffffff;stop-opacity:1;"
         offset="0"
         id="stop4528" />
    </linearGradient>
    <radialGradient
       gradientTransform="matrix(-0.52995454,0,0,-0.35307735,22.512547,21.835677)"
       gradientUnits="userSpaceOnUse"
       xlink:href="#linearGradient8662-7"
       id="radialGradient3862"
       fy="36.421127"
       fx="24.837126"
       r="15.644737"
       cy="36.421127"
       cx="24.837126" />
    <linearGradient
       id="linearGradient8662-7">
      <stop
         offset="0"
         style="stop-color:#000000;stop-opacity:1"
         id="stop8664-0" />
      <stop
         offset="1"
         style="stop-color:#000000;stop-opacity:0"
         id="stop8666-1" />
    </linearGradient>
    <linearGradient
       id="linearGradient1597">
      <stop
         id="stop1589"
         style="stop-color:#ffffff;stop-opacity:1"
         offset="0" />
      <stop
         id="stop1591"
         style="stop-color:#ffffff;stop-opacity:0.23529412"
         offset="0.46875" />
      <stop
         id="stop1593"
         style="stop-color:#ffffff;stop-opacity:0.15686275"
         offset="1" />
      <stop
         id="stop1595"
         style="stop-color:#ffffff;stop-opacity:0.39215687"
         offset="1" />
    </linearGradient>
    <linearGradient
       y2="54.037033"
       x2="35.374104"
       y1="54.037033"
       x1="20.443369"
       gradientTransform="matrix(0,1.004639,1,0,-42.037033,-15.538205)"
       gradientUnits="userSpaceOnUse"
       id="linearGradient940"
       xlink:href="#linearGradient1597" />
    <linearGradient
       y2="-18.961931"
       x2="0.31849742"
       y1="-18.961931"
       x1="22.209963"
       gradientTransform="rotate(-90,26.439257,-3.962333)"
       gradientUnits="userSpaceOnUse"
       id="linearGradient1118"
       xlink:href="#linearGradient78" />
    <linearGradient
       xlink:href="#linearGradient1177"
       id="linearGradient3174-6"
       gradientUnits="userSpaceOnUse"
       gradientTransform="matrix(0.93548387,0,0,1,-0.32258211,10.000495)"
       x1="13.172416"
       y1="-8.000495"
       x2="13.172416"
       y2="-7.9891839" />
  </defs>
  <g
     id="layer1"
     transform="matrix(-1,0,0,1,20.85018,8.5476097)">
    <path
       style="display:inline;overflow:visible;visibility:visible;opacity:0.141176;fill:url(#radialGradient3862);fill-opacity:1;fill-rule:evenodd;stroke:none;stroke-width:1;marker:none"
       id="path3501-0"
       d="m 1.059,8.976195 a 8.2909995,5.5238047 0 1 1 16.581999,0 8.2909995,5.5238047 0 0 1 -16.581999,0 z" />
  </g>
  <path
     id="path873-5-5-26"
     style="font-variation-settings:normal;vector-effect:none;fill:url(#linearGradient1118);fill-opacity:1;stroke:#206b00;stroke-width:1;stroke-linecap:round;stroke-linejoin:round;stroke-miterlimit:4;stroke-dasharray:none;stroke-dashoffset:0;stroke-opacity:0.5;stop-color:#000000"
     d="m 3.50018,12.00018 c 0,0.285849 0.214151,0.5 0.5,0.5 h 5 c 0.276217,-1.79e-4 0.500179,0.223783 0.5,0.5 v 8 c 0,0.285849 0.214151,0.5 0.5,0.5 h 3 c 0.285849,0 0.5,-0.214151 0.5,-0.5 v -8 c -1.79e-4,-0.276217 0.223783,-0.500179 0.5,-0.5 h 5 c 0.285849,0 0.5,-0.214151 0.5,-0.5 0,-0.153846 -0.06418,-0.282919 -0.167969,-0.375 -0.0073,-0.0063 -0.01451,-0.01281 -0.02148,-0.01953 L 11.841981,3.6369 c -0.09122,-0.08612 -0.20686,-0.13672 -0.341801,-0.13672 -0.134939,0 -0.250579,0.0506 -0.341797,0.136719 l -7.46875,7.96875 c -0.007,0.0067 -0.01413,0.01323 -0.02148,0.01953 -0.103792,0.09208 -0.167968,0.221155 -0.167968,0.375 z m 8,-8.5 h 7.384766 c 0.340924,0 0.615234,-0.223 0.615234,-0.5 v -2 c 0,-0.277 -0.27431,-0.5 -0.615234,-0.5 H 4.115415 c -0.340924,0 -0.615235,0.223 -0.615235,0.5 v 2 c 0,0.277 0.274311,0.5 0.615235,0.5 z" />
  <path
     id="path2343-3"
     d="m 4.49618,2.50418 v -1.008 h 14.008 v 1.008 z"
     style="color:#000000;font-variation-settings:normal;clip-rule:nonzero;display:inline;overflow:visible;visibility:visible;opacity:0.6;isolation:auto;mix-blend-mode:normal;color-interpolation:sRGB;color-interpolation-filters:linearRGB;solid-color:#000000;solid-opacity:1;vector-effect:none;fill:none;fill-opacity:1;fill-rule:nonzero;stroke:url(#linearGradient3174-6);stroke-width:1;stroke-linecap:butt;stroke-linejoin:miter;stroke-miterlimit:4;stroke-dasharray:none;stroke-dashoffset:0;stroke-opacity:1;marker:none;color-rendering:auto;image-rendering:auto;shape-rendering:auto;text-rendering:auto;enable-background:accumulate;stop-color:#000000;marker-start:none;marker-mid:none;marker-end:none;stop-opacity:1" />
  <path
     d="M 11.5 4.7050781 L 5.203125 11.501953 L 9 11.501953 C 9.827238 11.502221 10.497779 12.172762 10.498047 13 L 10.5 13 L 10.5 20.5 L 12.5 20.5 L 12.5 13 L 12.501953 13 C 12.502221 12.172762 13.172762 11.502221 14 11.501953 L 17.796875 11.501953 L 11.5 4.7050781 z "
     style="font-variation-settings:normal;opacity:0.6;vector-effect:none;fill:none;fill-opacity:1;stroke:url(#linearGradient940);stroke-width:1;stroke-linecap:butt;stroke-linejoin:miter;stroke-miterlimit:4;stroke-dasharray:none;stroke-dashoffset:0;stroke-opacity:1;marker:none;marker-start:none;marker-mid:none;marker-end:none;stop-color:#000000;stop-opacity:1"
     id="path873-5-5-2" />
</svg>
