<?xml version="1.0" encoding="UTF-8" standalone="no"?>
<svg
   xmlns:osb="http://www.openswatchbook.org/uri/2009/osb"
   xmlns:dc="http://purl.org/dc/elements/1.1/"
   xmlns:cc="http://creativecommons.org/ns#"
   xmlns:rdf="http://www.w3.org/1999/02/22-rdf-syntax-ns#"
   xmlns:svg="http://www.w3.org/2000/svg"
   xmlns="http://www.w3.org/2000/svg"
   xmlns:xlink="http://www.w3.org/1999/xlink"
   version="1.1"
   width="24"
   height="24"
   id="svg3071">
  <defs
     id="defs3073">
    <linearGradient
       id="linearGradient2181">
      <stop
         offset="0"
         style="stop-color:#ffffff;stop-opacity:1"
         id="stop2173" />
      <stop
         offset="0.66555053"
         style="stop-color:#ffffff;stop-opacity:0.23529412"
         id="stop2175" />
      <stop
         offset="1"
         style="stop-color:#ffffff;stop-opacity:0.15686275"
         id="stop2177" />
      <stop
         offset="1"
         style="stop-color:#ffffff;stop-opacity:0.39215687"
         id="stop2179" />
    </linearGradient>
    <linearGradient
       id="linearGradient1080">
      <stop
         id="stop1076"
         offset="0"
         style="stop-color:#64baff;stop-opacity:1" />
      <stop
         id="stop1078"
         offset="1"
         style="stop-color:#3689e6;stop-opacity:1" />
    </linearGradient>
    <linearGradient
       id="linearGradient1020">
      <stop
         style="stop-color:#cd9ef7;stop-opacity:1"
         offset="0"
         id="stop1016" />
      <stop
         style="stop-color:#a56de2;stop-opacity:1"
         offset="1"
         id="stop1018" />
    </linearGradient>
    <linearGradient
       id="linearGradient8662">
      <stop
         id="stop8664"
         style="stop-color:#000000;stop-opacity:1"
         offset="0" />
      <stop
         id="stop8666"
         style="stop-color:#000000;stop-opacity:0"
         offset="1" />
    </linearGradient>
    <radialGradient
       cx="24.837126"
       cy="36.421127"
       r="15.644737"
       fx="24.837126"
       fy="36.421127"
       id="radialGradient3140"
       xlink:href="#linearGradient8662"
       gradientUnits="userSpaceOnUse"
       gradientTransform="matrix(0.52995454,0,0,-0.35307735,0.487385,30.835677)" />
    <linearGradient
       id="linearGradient971">
      <stop
         offset="0"
         style="stop-color:#ffffff;stop-opacity:1"
         id="stop963" />
      <stop
         offset="0.51999998"
         style="stop-color:#ffffff;stop-opacity:0.23529412"
         id="stop965" />
      <stop
         offset="0.51999998"
         style="stop-color:#ffffff;stop-opacity:0.15686275"
         id="stop967" />
      <stop
         offset="1"
         style="stop-color:#ffffff;stop-opacity:0.39215687"
         id="stop969" />
    </linearGradient>
    <linearGradient
       id="linearGradient4526"
       osb:paint="solid">
      <stop
         style="stop-color:#ffffff;stop-opacity:1;"
         offset="0"
         id="stop4528" />
    </linearGradient>
    <linearGradient
       xlink:href="#linearGradient1020"
       id="linearGradient80-3"
       x1="12"
       y1="4"
       x2="12"
       y2="19.998161"
       gradientUnits="userSpaceOnUse"
       gradientTransform="matrix(-1,0,0,1,21.00036,0)" />
    <linearGradient
       y2="36.135208"
       x2="-2.5213938"
       y1="22.402153"
       x1="-2.5213938"
       gradientTransform="matrix(1.004639,0,0,1,10.087713,-17.171689)"
       gradientUnits="userSpaceOnUse"
       id="linearGradient983"
       xlink:href="#linearGradient971" />
    <linearGradient
       xlink:href="#linearGradient971"
       id="linearGradient983-3"
       gradientUnits="userSpaceOnUse"
       gradientTransform="matrix(1.004639,0,0,1,15.087713,-17.171689)"
       x1="-2.5213938"
       y1="22.402153"
       x2="-2.5213938"
       y2="36.135208" />
    <linearGradient
       xlink:href="#linearGradient1080"
       id="linearGradient1108"
       gradientUnits="userSpaceOnUse"
       gradientTransform="matrix(-1,0,0,1,26.00036,0)"
       x1="12"
       y1="4"
       x2="12"
       y2="19.998161" />
    <linearGradient
       xlink:href="#linearGradient2181"
       id="linearGradient1903"
       gradientUnits="userSpaceOnUse"
       gradientTransform="matrix(1.004639,0,0,1,10.087713,-17.171689)"
       x1="5.8849864"
       y1="20.383398"
       x2="5.8849864"
       y2="37.171688" />
    <linearGradient
       y2="37.171688"
       x2="5.8849864"
       y1="28.171688"
       x1="5.8849864"
       gradientTransform="matrix(1.004639,0,0,1,10.087713,-17.171689)"
       gradientUnits="userSpaceOnUse"
       id="linearGradient1903-0"
       xlink:href="#linearGradient2181" />
  </defs>
  <metadata
     id="metadata3076">
    <rdf:RDF>
      <cc:Work
         rdf:about="">
        <dc:format>image/svg+xml</dc:format>
        <dc:type
           rdf:resource="http://purl.org/dc/dcmitype/StillImage" />
        <dc:title></dc:title>
      </cc:Work>
    </rdf:RDF>
  </metadata>
  <path
     style="display:inline;overflow:visible;visibility:visible;opacity:0.141176;fill:url(#radialGradient3140);fill-opacity:1;fill-rule:evenodd;stroke:none;stroke-width:1;marker:none"
     id="path3501"
     d="m 21.940932,17.976195 a 8.2909995,5.5238047 0 1 0 -16.581999,0 8.2909995,5.5238047 0 0 0 16.581999,0 z" />
  <path
     d="M 9,3.5 C 8.846155,3.5 8.71708,3.564176 8.625,3.6679688 8.6187,3.6753188 8.61217,3.6824828 8.60547,3.6894528 L 0.6367198,11.158203 C 0.5505997,11.249421 0.5,11.365061 0.5,11.5 c 0,0.134941 0.050599,0.250577 0.1367188,0.341797 l 7.9687502,7.46875 c 0.0067,0.007 0.01323,0.01418 0.01953,0.02148 C 8.717081,19.43582 8.846154,19.5 9,19.5 9.285849,19.5 9.5,19.285849 9.5,19 V 4 C 9.5,3.7141507 9.285849,3.5 9,3.5 Z"
     style="font-variation-settings:normal;opacity:1;vector-effect:none;fill:url(#linearGradient80-3);fill-opacity:1;stroke:#452981;stroke-width:1;stroke-linecap:round;stroke-linejoin:round;stroke-miterlimit:4;stroke-dasharray:none;stroke-dashoffset:0;stroke-opacity:0.5;stop-color:#000000;stop-opacity:1"
     id="rect1082-4" />
  <path
     id="path873-5-5-2"
     style="font-variation-settings:normal;opacity:0.5;vector-effect:none;fill:none;fill-opacity:1;stroke:url(#linearGradient983);stroke-width:1;stroke-linecap:butt;stroke-linejoin:miter;stroke-miterlimit:4;stroke-dasharray:none;stroke-dashoffset:0;stroke-opacity:1;marker:none;marker-start:none;marker-mid:none;marker-end:none;stop-color:#000000"
     d="M 10.00036,12.501953 C 9.173122,12.502221 8.502581,13.172762 8.502313,14 v 3.796875 L 1.70536,11.5 8.502313,5.203539 v 3.796875 c 2.68e-4,0.827238 0.670809,1.497779 1.498047,1.498047" />
  <path
     id="rect1082"
     style="font-variation-settings:normal;opacity:1;vector-effect:none;fill:url(#linearGradient1108);fill-opacity:1;stroke:#002e99;stroke-width:1;stroke-linecap:round;stroke-linejoin:round;stroke-miterlimit:4;stroke-dasharray:none;stroke-dashoffset:0;stroke-opacity:0.5;stop-color:#000000;stop-opacity:1"
     d="m 14,3.5 c -0.153845,0 -0.28292,0.064176 -0.375,0.1679688 -0.0063,0.00735 -0.01283,0.014514 -0.01953,0.021484 L 5.6367198,11.158203 C 5.5505997,11.249421 5.5,11.365061 5.5,11.5 c 0,0.134941 0.050599,0.250577 0.1367188,0.341797 l 7.9687502,7.46875 c 0.0067,0.007 0.01323,0.01418 0.01953,0.02148 C 13.717081,19.43582 13.846154,19.5 14,19.5 c 0.285849,0 0.5,-0.214151 0.5,-0.5 v -5 c -1.79e-4,-0.276217 0.223783,-0.500179 0.5,-0.5 h 1 c 2,0 3.5,1.5 3.5,3.5 v 3.75 c 0,0.4155 0.3345,0.75 0.75,0.75 h 2.5 c 0.4155,0 0.75,-0.3345 0.75,-0.75 V 17 C 23.583913,13 20,9.5 16,9.5 H 15 C 14.723783,9.500179 14.499821,9.276217 14.5,9 V 4 C 14.5,3.7141507 14.285849,3.5 14,3.5 Z" />
  <path
     d="M 15.00036,12.501953 C 14.173122,12.502221 13.502581,13.172762 13.502313,14 v 3.796875 L 6.70536,11.5 13.502313,5.203539 v 3.796875 c 2.68e-4,0.827238 0.670809,1.497779 1.498047,1.498047"
     style="font-variation-settings:normal;opacity:0.5;vector-effect:none;fill:none;fill-opacity:1;stroke:url(#linearGradient983-3);stroke-width:1;stroke-linecap:butt;stroke-linejoin:miter;stroke-miterlimit:4;stroke-dasharray:none;stroke-dashoffset:0;stroke-opacity:1;marker:none;marker-start:none;marker-mid:none;marker-end:none;stop-color:#000000"
     id="path873-5-5-2-6" />
  <path
     id="rect1082-96"
     style="font-variation-settings:normal;opacity:0.5;vector-effect:none;fill:none;fill-opacity:1;stroke:url(#linearGradient1903);stroke-width:1;stroke-linecap:butt;stroke-linejoin:miter;stroke-miterlimit:4;stroke-dasharray:none;stroke-dashoffset:0;stroke-opacity:1;marker:none;marker-start:none;marker-mid:none;marker-end:none;stop-color:#000000;stop-opacity:1"
     d="m 15,12.503906 h 1 c 2.49821,0 4.496094,1.997884 4.496094,4.496094 v 3" />
  <path
     d="m 20,20.503906 h 2.503906 V 16.97852 C 22.575086,13.585484 19.418755,10.496094 16,10.496094 h -1"
     style="font-variation-settings:normal;opacity:0.5;vector-effect:none;fill:none;fill-opacity:1;stroke:url(#linearGradient1903-0);stroke-width:1;stroke-linecap:butt;stroke-linejoin:miter;stroke-miterlimit:4;stroke-dasharray:none;stroke-dashoffset:0;stroke-opacity:1;marker:none;marker-start:none;marker-mid:none;marker-end:none;stop-color:#000000;stop-opacity:1"
     id="rect1082-96-4" />
</svg>
