<?xml version="1.0" encoding="UTF-8" standalone="no"?>
<svg
   xmlns:osb="http://www.openswatchbook.org/uri/2009/osb"
   xmlns:dc="http://purl.org/dc/elements/1.1/"
   xmlns:cc="http://creativecommons.org/ns#"
   xmlns:rdf="http://www.w3.org/1999/02/22-rdf-syntax-ns#"
   xmlns:svg="http://www.w3.org/2000/svg"
   xmlns="http://www.w3.org/2000/svg"
   xmlns:xlink="http://www.w3.org/1999/xlink"
   id="svg3071"
   height="24"
   width="24"
   version="1.1">
  <defs
     id="defs3073">
    <linearGradient
       id="linearGradient2181">
      <stop
         id="stop2173"
         style="stop-color:#ffffff;stop-opacity:1"
         offset="0" />
      <stop
         id="stop2175"
         style="stop-color:#ffffff;stop-opacity:0.23529412"
         offset="0.66555053" />
      <stop
         id="stop2177"
         style="stop-color:#ffffff;stop-opacity:0.15686275"
         offset="1" />
      <stop
         id="stop2179"
         style="stop-color:#ffffff;stop-opacity:0.39215687"
         offset="1" />
    </linearGradient>
    <linearGradient
       id="linearGradient1020">
      <stop
         id="stop1016"
         offset="0"
         style="stop-color:#cd9ef7;stop-opacity:1" />
      <stop
         id="stop1018"
         offset="1"
         style="stop-color:#a56de2;stop-opacity:1" />
    </linearGradient>
    <linearGradient
       id="linearGradient8662">
      <stop
         offset="0"
         style="stop-color:#000000;stop-opacity:1"
         id="stop8664" />
      <stop
         offset="1"
         style="stop-color:#000000;stop-opacity:0"
         id="stop8666" />
    </linearGradient>
    <linearGradient
       id="linearGradient971">
      <stop
         id="stop963"
         style="stop-color:#ffffff;stop-opacity:1"
         offset="0" />
      <stop
         id="stop965"
         style="stop-color:#ffffff;stop-opacity:0.23529412"
         offset="0.51999998" />
      <stop
         id="stop967"
         style="stop-color:#ffffff;stop-opacity:0.15686275"
         offset="0.51999998" />
      <stop
         id="stop969"
         style="stop-color:#ffffff;stop-opacity:0.39215687"
         offset="1" />
    </linearGradient>
    <linearGradient
       osb:paint="solid"
       id="linearGradient4526">
      <stop
         id="stop4528"
         offset="0"
         style="stop-color:#ffffff;stop-opacity:1;" />
    </linearGradient>
    <linearGradient
       gradientTransform="matrix(-1,0,0,1,18.00036,0)"
       gradientUnits="userSpaceOnUse"
       y2="19.998161"
       x2="12"
       y1="4"
       x1="12"
       id="linearGradient80-3"
       xlink:href="#linearGradient1020" />
    <linearGradient
       y2="36.135208"
       x2="-2.5213938"
       y1="22.402153"
       x1="-2.5213938"
       gradientTransform="matrix(1.004639,0,0,1,12.087713,-17.171689)"
       gradientUnits="userSpaceOnUse"
       id="linearGradient983-3"
       xlink:href="#linearGradient971" />
    <linearGradient
       y2="37.171688"
       x2="5.8849864"
       y1="20.383398"
       x1="5.8849864"
       gradientTransform="matrix(1.004639,0,0,1,7.087713,-17.171689)"
       gradientUnits="userSpaceOnUse"
       id="linearGradient1903"
       xlink:href="#linearGradient2181" />
    <linearGradient
       xlink:href="#linearGradient2181"
       id="linearGradient1903-0"
       gradientUnits="userSpaceOnUse"
       gradientTransform="matrix(1.004639,0,0,1,7.087713,-17.171689)"
       x1="5.8849864"
       y1="28.171688"
       x2="5.8849864"
       y2="37.171688" />
    <radialGradient
       gradientTransform="matrix(0.52995454,0,0,-0.35307735,0.487385,30.837034)"
       gradientUnits="userSpaceOnUse"
       xlink:href="#linearGradient8662"
       id="radialGradient3870"
       fy="36.421127"
       fx="24.837126"
       r="15.644737"
       cy="36.421127"
       cx="24.837126" />
  </defs>
  <metadata
     id="metadata3076">
    <rdf:RDF>
      <cc:Work
         rdf:about="">
        <dc:format>image/svg+xml</dc:format>
        <dc:type
           rdf:resource="http://purl.org/dc/dcmitype/StillImage" />
        <dc:title></dc:title>
      </cc:Work>
    </rdf:RDF>
  </metadata>
  <path
     d="m 21.940932,17.977552 a 8.2909995,5.5238047 0 1 0 -16.581999,0 8.2909995,5.5238047 0 0 0 16.581999,0 z"
     id="path3501-0"
     style="display:inline;overflow:visible;visibility:visible;opacity:0.141176;fill:url(#radialGradient3870);fill-opacity:1;fill-rule:evenodd;stroke:none;stroke-width:1;marker:none" />
  <path
     d="m 11,3.5 c -0.153845,0 -0.28292,0.064176 -0.375,0.1679688 -0.0063,0.00735 -0.01283,0.014514 -0.01953,0.021484 L 2.6367198,11.158203 C 2.5505997,11.249421 2.5,11.365061 2.5,11.5 c 0,0.134941 0.050599,0.250577 0.1367188,0.341797 l 7.9687502,7.46875 c 0.0067,0.007 0.01323,0.01418 0.01953,0.02148 C 10.717081,19.43582 10.846154,19.5 11,19.5 c 0.285849,0 0.5,-0.214151 0.5,-0.5 v -5 c -1.79e-4,-0.276217 0.223783,-0.500179 0.5,-0.5 h 1 c 2,0 3.5,1.5 3.5,3.5 v 3.75 c 0,0.4155 0.3345,0.75 0.75,0.75 h 2.5 c 0.4155,0 0.75,-0.3345 0.75,-0.75 V 17 C 20.583913,13 17,9.5 13,9.5 H 12 C 11.723783,9.500179 11.499821,9.276217 11.5,9 V 4 C 11.5,3.7141507 11.285849,3.5 11,3.5 Z"
     style="font-variation-settings:normal;opacity:1;vector-effect:none;fill:url(#linearGradient80-3);fill-opacity:1;stroke:#452981;stroke-width:1;stroke-linecap:round;stroke-linejoin:round;stroke-miterlimit:4;stroke-dasharray:none;stroke-dashoffset:0;stroke-opacity:0.5;stop-color:#000000;stop-opacity:1"
     id="rect1082" />
  <path
     id="path873-5-5-2-6"
     style="font-variation-settings:normal;opacity:0.5;vector-effect:none;fill:none;fill-opacity:1;stroke:url(#linearGradient983-3);stroke-width:1;stroke-linecap:butt;stroke-linejoin:miter;stroke-miterlimit:4;stroke-dasharray:none;stroke-dashoffset:0;stroke-opacity:1;marker:none;marker-start:none;marker-mid:none;marker-end:none;stop-color:#000000"
     d="M 12.00036,12.501953 C 11.173122,12.502221 10.502581,13.172762 10.502313,14 v 3.796875 L 3.70536,11.5 10.502313,5.203539 v 3.796875 c 2.68e-4,0.827238 0.670809,1.497779 1.498047,1.498047" />
  <path
     d="m 12,12.503906 h 1 c 2.49821,0 4.496094,1.997884 4.496094,4.496094 v 3"
     style="font-variation-settings:normal;opacity:0.5;vector-effect:none;fill:none;fill-opacity:1;stroke:url(#linearGradient1903);stroke-width:1;stroke-linecap:butt;stroke-linejoin:miter;stroke-miterlimit:4;stroke-dasharray:none;stroke-dashoffset:0;stroke-opacity:1;marker:none;marker-start:none;marker-mid:none;marker-end:none;stop-color:#000000;stop-opacity:1"
     id="rect1082-96" />
  <path
     id="rect1082-96-4"
     style="font-variation-settings:normal;opacity:0.5;vector-effect:none;fill:none;fill-opacity:1;stroke:url(#linearGradient1903-0);stroke-width:1;stroke-linecap:butt;stroke-linejoin:miter;stroke-miterlimit:4;stroke-dasharray:none;stroke-dashoffset:0;stroke-opacity:1;marker:none;marker-start:none;marker-mid:none;marker-end:none;stop-color:#000000;stop-opacity:1"
     d="m 17,20.503906 h 2.503906 V 16.97852 C 19.575086,13.585484 16.418755,10.496094 13,10.496094 h -1" />
</svg>
